<svg xmlns="http://www.w3.org/2000/svg" width="1439" height="295.684" viewBox="0 0 1439 295.684">
  <g id="Group_27" data-name="Group 27" transform="translate(0 -50.212)">
    <g id="Group_14" data-name="Group 14" transform="translate(0 76.896)">
      <rect id="Rectangle_8" data-name="Rectangle 8" width="528" height="228" fill="rgba(247,247,247,0.11)"/>
      <text id="Invisibility" transform="translate(505 148)" fill="#dc9e82" font-size="102" font-family="SourceSansPro-Semibold, Source Sans Pro" font-weight="600"><tspan x="-461.346" y="0">Invisibility</tspan></text>
    </g>
    <g id="Group_17" data-name="Group 17" transform="translate(520.957 168.896)">
      <g id="Group_15" data-name="Group 15">
        <rect id="Rectangle_9" data-name="Rectangle 9" width="68" height="71" transform="translate(0 4)" fill="rgba(255,255,255,0.04)"/>
        <text id="is" transform="translate(45 48)" fill="#dc9e82" font-size="48" font-family="Lora-Bold, Lora" font-weight="700"><tspan x="-38.976" y="0">is</tspan></text>
      </g>
      <g id="Group_16" data-name="Group 16" transform="translate(54.72 14.376) rotate(2)">
        <path id="Path_8" data-name="Path 8" d="M.282.566,131.142,0l-.282,55.434L0,56Z" transform="translate(30.023 15.593)" fill="none"/>
        <text id="a" transform="translate(29 55)" fill="#dc9e82" font-size="55" font-family="Lora-Bold, Lora" font-weight="700"><tspan x="-28.82" y="0">a</tspan></text>
      </g>
    </g>
    <g id="Group_18" data-name="Group 18" transform="translate(611 132.896)">
      <rect id="Rectangle_11" data-name="Rectangle 11" width="265" height="100" transform="translate(0 12)" fill="none"/>
      <text id="Super" transform="translate(261 92)" fill="#dc9e82" font-size="89" font-family="Lora-BoldItalic, Lora" font-weight="700" font-style="italic"><tspan x="-239.855" y="0">Super</tspan></text>
    </g>
    <g id="Group_19" data-name="Group 19" transform="translate(876.349 105.632) rotate(-11)">
      <rect id="Rectangle_12" data-name="Rectangle 12" width="515.609" height="184.087" transform="translate(12.799 46.255)" fill="none"/>
      <text id="Power." transform="translate(525.55 245.046) rotate(11)" fill="#eba2cd" font-size="158" font-family="WorkSans-Bold, Work Sans" font-weight="700"><tspan x="-528.194" y="0">Power.</tspan></text>
    </g>
    <g id="Group_20" data-name="Group 20" transform="translate(0 248.896)">
      <rect id="Rectangle_13" data-name="Rectangle 13" width="1411" height="85" transform="translate(0 8)" fill="none"/>
      <text id="Change_your_display_name_whenever_you_want." data-name="Change your display name whenever you want." transform="translate(1411 69)" fill="#afa663" font-size="66" font-family="Heebo-Regular, Heebo"><tspan x="-1370.273" y="0">Change your display name whenever you want.</tspan></text>
    </g>
  </g>
</svg>
